:SAMPLES-PER-SECOND 30
:FULLY-SPECIFIED
:DEGREES
490
root  -21.2083 38.5012 10.8768 4.61877 68.8476 6.50598
RightUpLeg  20.7542 -10.541 -5.45594
RightLeg  8.63886 -3.14661 1.04372
RightFoot  -20.1734 0.283042 5.4226
RightToes  5.82063e-011 0 -3.6325e-017
Spine  6.39743 0.944477 5.09381
Spine1  4.68328 2.56168 -5.38794
HEad  -11.214 12.3615 -4.88353
LeftShoulder1  -0.245617 4.18939 -29.6388
LeftArm  -7.15101 17.2322 -38.7268
LeftForeArm  25.3706 -4.31547 -6.57871
LeftHand  -0.141 8.99012 -2.8089
RightShoulder  -0.801461 -5.79227 28.4037
RightArm  10.0149 2.42322 44.4138
RightForeArm  4.57714 13.3338 5.18144
RightHand  -0.241715 4.37301 -3.15407
LeftUpLeg  -20.0905 2.19204 -7.51428
LeftLeg  8.7628 18.7984 0.599075
LeftFoot  1.00372 -0.682155 6.44909
LeftToes  1.68253e-010 -3.2327e-011 -2.69673e-012
491
root  -20.0913 38.2188 11.4613 6.68634 68.9387 8.80597
RightUpLeg  22.262 -11.464 -7.13023
RightLeg  10.5262 -1.27051 1.03595
RightFoot  -20.9781 0.496423 7.53933
RightToes  5.82063e-011 0 -3.6325e-017
Spine  5.78156 1.15056 3.59181
Spine1  4.85299 2.73822 -5.7742
HEad  -11.2472 12.7089 -3.9472
LeftShoulder1  -0.33272 4.41979 -30.198
LeftArm  -6.50607 18.2072 -36.9132
LeftForeArm  26.2671 -4.03962 -6.78125
LeftHand  -0.132109 8.61721 -2.8553
RightShoulder  -0.803552 -5.79295 28.4823
RightArm  10.3741 1.22268 46.196
RightForeArm  5.22818 13.6018 5.20493
RightHand  -0.26716 4.48393 -3.42529
LeftUpLeg  -21.9257 6.53472 -10.0972
LeftLeg  15.441 13.209 3.46277
LeftFoot  2.52867 -0.878318 7.11189
LeftToes  1.68253e-010 -3.2327e-011 -2.69673e-012
492
root  -18.9239 38.0003 12.0511 9.26343 69.4044 11.8434
RightUpLeg  23.7438 -12.8642 -9.36665
RightLeg  13.126 0.915427 1.10928
RightFoot  -20.8486 0.756154 10.813
RightToes  5.82063e-011 0 -3.6325e-017
Spine  5.64794 1.43078 2.42441
Spine1  4.73754 3.21762 -6.89992
HEad  -11.2283 11.9432 -3.2681
LeftShoulder1  -0.285914 4.29186 -30.1404
LeftArm  -6.49001 18.9489 -35.6974
LeftForeArm  26.8747 -4.27034 -6.67103
LeftHand  -0.172007 8.79111 -4.0101
RightShoulder  -0.821093 -5.8287 28.7044
RightArm  10.3303 -1.3085 47.7497
RightForeArm  5.44543 14.2496 5.05423
RightHand  -0.290987 4.28865 -3.76922
LeftUpLeg  -22.6006 8.2198 -11.7042
LeftLeg  21.0663 10.3632 4.83244
LeftFoot  0.305558 -0.836572 8.17841
LeftToes  1.68253e-010 -3.2327e-011 -2.69673e-012
493
root  -17.7789 38.0143 12.5061 10.2842 68.8556 13.4893
RightUpLeg  24.5652 -13.6672 -11.6388
RightLeg  16.3384 3.5135 1.23776
RightFoot  -18.436 0.814936 15.2616
RightToes  5.82063e-011 0 -3.6325e-017
Spine  6.06246 2.12173 2.62397
Spine1  4.45987 4.35884 -9.25622
HEad  -10.2904 10.529 -2.89503
LeftShoulder1  -0.315453 4.37586 -30.009
LeftArm  -6.96399 19.3679 -35.2368
LeftForeArm  25.9776 -4.37267 -6.35669
LeftHand  -0.143165 8.70099 -3.16023
RightShoulder  -0.767329 -5.69177 28.4339
RightArm  11.6957 -3.44661 49.0349
RightForeArm  5.13143 13.6043 5.55087
RightHand  -0.287217 4.13895 -3.77702
LeftUpLeg  -21.1403 8.48596 -12.0698
LeftLeg  23.2154 10.9477 5.43428
LeftFoot  -1.20352 -0.870022 9.86139
LeftToes  1.68253e-010 -3.2327e-011 -2.69673e-012
494
root  -16.6872 38.1036 12.8719 11.4821 68.1717 14.7589
RightUpLeg  22.2559 -12.5739 -12.9505
RightLeg  23.0222 4.33152 1.75872
RightFoot  -14.1222 0.382488 19.9228
RightToes  5.82063e-011 0 -3.6325e-017
Spine  6.30881 2.56491 2.44695
Spine1  3.67598 4.89346 -10.8948
HEad  -8.79269 10.5096 -3.32838
LeftShoulder1  -0.486508 4.84382 -30.1637
LeftArm  -6.68559 20.2179 -34.7945
LeftForeArm  23.9763 -5.70298 -6.52184
LeftHand  -0.125355 8.53616 -2.74943
RightShoulder  -0.725166 -5.57886 28.2913
RightArm  14.7066 -3.69077 49.7293
RightForeArm  8.69072 12.0437 6.61572
RightHand  -0.147778 3.77989 -2.10166
LeftUpLeg  -19.6364 8.671 -12.5084
LeftLeg  24.0775 11.5156 5.90636
LeftFoot  -3.09659 -0.726184 10.2844
LeftToes  1.68253e-010 -3.2327e-011 -2.69673e-012
495
root  -15.6573 38.26 13.2536 12.4222 67.9278 15.7377
RightUpLeg  17.6681 -11.1212 -13.564
RightLeg  32.6337 4.08435 2.58628
RightFoot  -6.2255 -0.855478 19.5111
RightToes  5.82063e-011 0 -3.6325e-017
Spine  6.24579 2.77761 1.57112
Spine1  3.32975 4.93808 -11.0039
HEad  -7.58078 10.7203 -3.57964
LeftShoulder1  -0.529338 4.96559 -30.0567
LeftArm  -7.35139 20.2961 -35.6963
LeftForeArm  22.2908 -6.50819 -6.26318
LeftHand  -0.130573 8.92772 -2.52683
RightShoulder  -0.710056 -5.54783 28.0676
RightArm  16.9951 -3.1971 50.391
RightForeArm  14.9982 11.3092 7.26419
RightHand  -0.0461644 2.19481 -0.913533
LeftUpLeg  -17.6433 8.75958 -12.6809
LeftLeg  23.9265 11.6646 5.94624
LeftFoot  -4.64801 -0.545663 9.78609
LeftToes  1.68253e-010 -3.2327e-011 -2.69673e-012
496
root  -14.7527 38.4165 13.5957 12.7941 67.0467 16.1948
RightUpLeg  11.3749 -8.7098 -13.6174
RightLeg  43.2679 3.75322 3.46637
RightFoot  2.48688 -1.79929 14.6692
RightToes  5.82063e-011 0 -3.6325e-017
Spine  6.62074 3.14076 0.273454
Spine1  3.09438 4.98355 -10.4949
HEad  -7.59167 11.329 -4.05921
LeftShoulder1  -0.48762 4.84277 -30.2698
LeftArm  -7.73214 19.4761 -36.8579
LeftForeArm  21.1462 -6.95743 -6.18798
LeftHand  -0.111036 8.6686 -2.13156
RightShoulder  -0.630566 -5.35928 27.2669
RightArm  17.8564 -3.22673 51.1503
RightForeArm  18.4984 12.2304 7.00765
RightHand  -0.0243703 2.36632 -0.564824
LeftUpLeg  -15.6119 9.51564 -12.7569
LeftLeg  23.2589 11.8006 5.83747
LeftFoot  -5.95025 -0.399222 9.21563
LeftToes  1.68253e-010 -3.2327e-011 -2.69673e-012
497
root  -13.9393 38.5314 13.9182 12.832 66.4426 16.7249
RightUpLeg  5.98253 -6.55815 -13.6257
RightLeg  51.7641 2.98683 3.70781
RightFoot  3.85127 -1.76877 13.3742
RightToes  5.82063e-011 0 -3.6325e-017
Spine  7.22582 3.15127 -1.34258
Spine1  3.55813 4.59933 -9.90994
HEad  -8.34747 12.5798 -4.61826
LeftShoulder1  -0.444089 4.72117 -30.2954
LeftArm  -7.38396 17.3889 -37.9125
LeftForeArm  21.3378 -7.02873 -6.52036
LeftHand  -0.115575 8.7317 -2.18753
RightShoulder  -0.564079 -5.1685 27.1094
RightArm  18.343 -2.84632 51.2519
RightForeArm  17.4735 13.8214 6.41791
RightHand  -0.0292716 2.73491 -0.602072
LeftUpLeg  -13.2141 10.1643 -12.6303
LeftLeg  22.5144 11.9747 5.42933
LeftFoot  -7.19325 -0.26793 8.58834
LeftToes  1.68253e-010 -3.2327e-011 -2.69673e-012
